<svg id="b079ed72-70ce-428f-aeb3-f218b903ad58" data-name="Layer 1" xmlns="http://www.w3.org/2000/svg" viewBox="0 0 122.25 28.88"><title>heading-gallery</title><path d="M113.34,28.36h1V13L122.25.52H121.1L113.82,12,106.58.52H105.4L113.34,13ZM89.73,20.12V1.49h3.75a9.32,9.32,0,1,1,0,18.63Zm-1,8.24h1V21.09h3.75A9.73,9.73,0,0,0,95,21l7.39,7.39h1.34l-7.61-7.61A10.29,10.29,0,0,0,93.48.52H88.76Zm-22.53,0h18.3v-1H67.19V.52h-1ZM73,21.61H84.53v-1H74V11.1h9.88v-1H74V1.49H84.53v-1H73ZM51.71,28.36H63.26v-1H52.68V.52h-1ZM34.15,20.12l5.5-17,5.46,17Zm-3.63,8.24h1l2.34-7.27H45.4l2.34,7.27h1L39.65,0Zm-16-13.44h13.4A13.5,13.5,0,1,1,24,4.94l.78-.63a14.44,14.44,0,1,0,4.15,10.13V14H14.48Z"/></svg>