<?xml version="1.0" encoding="utf-8"?>
<!-- Generator: Adobe Illustrator 19.1.0, SVG Export Plug-In . SVG Version: 6.00 Build 0)  -->
<svg version="1.1" id="Layer_1" xmlns="http://www.w3.org/2000/svg" xmlns:xlink="http://www.w3.org/1999/xlink" x="0px" y="0px"
	 viewBox="0 0 133.4 38.5" style="enable-background:new 0 0 133.4 38.5;" xml:space="preserve">
<style type="text/css">
	.st0{clip-path:url(#SVGID_2_);fill:#F1F0F0;}
	.st1{clip-path:url(#SVGID_4_);fill:none;stroke:#FFFFFF;}
	.st2{fill:none;stroke:#FFFFFF;}
	.st3{clip-path:url(#SVGID_6_);}
	.st4{clip-path:url(#SVGID_8_);}
	.st5{clip-path:url(#SVGID_10_);}
	.st6{clip-path:url(#SVGID_12_);fill:none;stroke:#000000;}
	.st7{fill:none;stroke:#000000;}
	.st8{clip-path:url(#SVGID_14_);}
	.st9{clip-path:url(#SVGID_16_);fill:url(#SVGID_17_);}
	.st10{clip-path:url(#SVGID_19_);fill:#F3F1F1;}
	.st11{clip-path:url(#SVGID_21_);}
	.st12{clip-path:url(#SVGID_23_);fill:#FFFFFF;}
	.st13{clip-path:url(#SVGID_25_);fill:#F1F0F0;}
</style>
<g>
	<defs>
		<rect id="SVGID_13_" x="0" y="0" width="133.4" height="38.5"/>
	</defs>
	<clipPath id="SVGID_2_">
		<use xlink:href="#SVGID_13_"  style="overflow:visible;"/>
	</clipPath>
	<path style="clip-path:url(#SVGID_2_);" d="M123.5,37.9c5.5,0,9.9-4.2,9.9-9.6c0-8.6-10.3-10.2-10.3-18c0-4.7,3.8-8.3,8.6-8.3V0.7
		c-5.5,0-9.9,4.2-9.9,9.6c0,8.6,10.3,10.2,10.3,18c0,4.7-3.8,8.3-8.6,8.3V37.9z M96.6,28.9c0,5.3,4.3,9.7,9.6,9.7
		c5.3,0,9.7-4.3,9.7-9.7V0.7h-1.3v28.2c0,4.6-3.8,8.4-8.4,8.4c-4.6,0-8.3-3.8-8.3-8.4V0.7h-1.3V28.9z M66.5,37.8h1.3V4.5l21.6,34
		V0.7h-1.3v33.4L66.5,0V37.8z M42.1,37.8h19.3v-1.3h-18V19.3H60V18H43.4V2h18V0.7H42.1V37.8z M0,37.8h1.5L22.1,4.6v18.2L33.4,4.6
		v33.3h1.3V0L23.4,18.2V0L0,37.8z"/>
</g>
</svg>
