<?xml version="1.0" encoding="utf-8"?>
<!-- Generator: Adobe Illustrator 19.1.0, SVG Export Plug-In . SVG Version: 6.00 Build 0)  -->
<svg version="1.1" id="Layer_1" xmlns="http://www.w3.org/2000/svg" xmlns:xlink="http://www.w3.org/1999/xlink" x="0px" y="0px"
	 viewBox="0 0 172.1 38.5" style="enable-background:new 0 0 172.1 38.5;" xml:space="preserve">
<style type="text/css">
	.st0{clip-path:url(#SVGID_2_);fill:#F1F0F0;}
	.st1{clip-path:url(#SVGID_4_);fill:none;stroke:#FFFFFF;}
	.st2{fill:none;stroke:#FFFFFF;}
	.st3{clip-path:url(#SVGID_6_);}
	.st4{clip-path:url(#SVGID_8_);}
	.st5{clip-path:url(#SVGID_10_);}
	.st6{clip-path:url(#SVGID_12_);fill:none;stroke:#000000;}
	.st7{fill:none;stroke:#000000;}
	.st8{clip-path:url(#SVGID_14_);}
	.st9{clip-path:url(#SVGID_16_);fill:url(#SVGID_17_);}
	.st10{clip-path:url(#SVGID_19_);fill:#F3F1F1;}
	.st11{clip-path:url(#SVGID_21_);}
	.st12{clip-path:url(#SVGID_23_);fill:#FFFFFF;}
	.st13{clip-path:url(#SVGID_25_);fill:#F1F0F0;}
</style>
<g>
	<defs>
		<rect id="SVGID_7_" x="0" y="0" width="172.1" height="38.5"/>
	</defs>
	<clipPath id="SVGID_2_">
		<use xlink:href="#SVGID_7_"  style="overflow:visible;"/>
	</clipPath>
	<path style="clip-path:url(#SVGID_2_);" d="M153.4,26.8V2h5c6.9,0,12.4,5.5,12.4,12.4c0,6.9-5.5,12.4-12.4,12.4H153.4z M152.2,37.8
		h1.3v-9.7h5c0.7,0,1.3,0,2-0.1l9.8,9.9h1.8L162,27.7c5.9-1.5,10.1-7,10.1-13.3c0-7.8-6.3-13.7-13.7-13.7h-6.3V37.8z M129.6,26.8
		l13.8-22.3v22.3H129.6z M121.3,37.8h1.5l6-9.7h14.6v9.7h1.3V0L121.3,37.8z M101.6,18V2h8c4.4,0,8,3.6,8,8c0,4.4-3.6,8-8,8H101.6z
		 M101.6,36.5V19.3h8c4.8,0,8.7,3.9,8.7,8.7s-3.9,8.6-8.7,8.6H101.6z M100.3,37.8h9.3c5.5,0,9.9-4.5,9.9-9.9c0-4.2-2.7-7.9-6.5-9.3
		c3.4-1.4,5.8-4.7,5.8-8.6c0-5.1-4.2-9.3-9.3-9.3h-9.3V37.8z M68.5,26.8l7.3-22.7l7.3,22.7H68.5z M63.7,37.8H65l3.1-9.7h15.4
		l3.1,9.7H88L75.8,0L63.7,37.8z M61,32c-3.3,3.3-7.7,5.2-12.7,5.2c-9.9,0-18-8.1-18-18c0-9.9,8.1-18,18-18c4.9,0,9.4,2,12.7,5.3
		l0.9-0.9C58.4,2.2,53.6,0,48.3,0C37.7,0,29.1,8.6,29.1,19.3c0,10.6,8.6,19.3,19.3,19.3c5.3,0,10.1-2.1,13.6-5.6L61,32z M0,37.8
		h23.9v-1.3H1.3V0.7H0V37.8z M9.4,22c0,4,3.2,7.2,7.2,7.2c4,0,7.3-3.2,7.3-7.2V0.7h-1.3V22c0,3.3-2.7,5.9-6,5.9
		c-3.3,0-5.9-2.6-5.9-5.9V0.7H9.4V22z"/>
</g>
</svg>
