<svg id="c412fe9f-5845-496c-a0b6-f5f2ff9afdad" data-name="Layer 1" xmlns="http://www.w3.org/2000/svg" viewBox="0 0 255.95 34.23"><title>heading-private-dining</title><path d="M238.87,17.69h15.89a16,16,0,1,1-4.66-11.84L251,5.1a17.11,17.11,0,1,0,4.93,12v-.57H238.87ZM196.32,33.62h1.14V4L216.7,34.23V.62h-1.14V30.27L196.32,0Zm-7.74,0h1.14V.62h-1.14Zm-27,0h1.14V4L182,34.23V.62h-1.14V30.27L161.61,0Zm-7.74,0H155V.62h-1.14Zm-25-1.14V1.76h3.48a15.36,15.36,0,1,1,0,30.71Zm-1.14,1.14h4.62a16.5,16.5,0,1,0,0-33h-4.62Zm-34.19,0h1.14V1.76h20.55V.62H85.58V1.76h8Zm8,0h13.68V32.47H102.69V21.16h11.7V20h-11.7V9.77h12.54V8.62H101.55ZM68.64,23.85,80.91,4v19.8Zm-7.39,9.77h1.36L67.93,25h13v8.62h1.14V0Zm-7.61.62L74.45.62H73.08L54.78,30.18V.62H53.63Zm-7.74-.62H47V.62H45.89ZM24,23.85V1.76h4.45a11,11,0,1,1,0,22.09Zm-1.14,9.77H24V25h4.45a12.44,12.44,0,0,0,1.8-.13L39,33.62h1.58l-9-9a12.2,12.2,0,0,0-3.12-24H22.88ZM1.14,23.85V1.76H5.59a11,11,0,1,1,0,22.09ZM0,33.62H1.14V25H5.59A12.19,12.19,0,0,0,5.59.62H0Z" fill="#000000"/></svg>