<svg id="ab7ad684-e175-43a5-ab6a-26d8f5d3014b" data-name="Layer 1" xmlns="http://www.w3.org/2000/svg" xmlns:xlink="http://www.w3.org/1999/xlink" viewBox="0 0 338.53 35.01"><defs><clipPath id="aa802155-f617-470c-bd81-4c8ecd4a9c47"><rect width="338.53" height="35.01" fill="none"/></clipPath></defs><title>heading-hours-location</title><g clip-path="url(#aa802155-f617-470c-bd81-4c8ecd4a9c47)"><path d="M317.7,34.38h1.16V4.09L338.53,35V.63h-1.17V31L317.7,0Zm-39-16.88a16.34,16.34,0,1,1,16.33,16.34A16.35,16.35,0,0,1,278.73,17.5m-1.17,0A17.51,17.51,0,1,0,295.06,0a17.5,17.5,0,0,0-17.5,17.5m-6.3,16.88h1.17V8.82h-1.17Zm-8.15,0h1.17V1.8h8.15V.63H254.92V1.8h8.19ZM239,24.39,245.7,3.78l6.61,20.61Zm-4.41,10h1.21l2.84-8.82h14l2.84,8.82h1.21L245.7,0Zm-3.33-5.31a16.18,16.18,0,0,1-11.52,4.77A16.34,16.34,0,1,1,231.3,6l.85-.85a17.51,17.51,0,1,0,0,24.75Zm-57.51-15.8a12.11,12.11,0,1,1,12.1,12.11,12.13,12.13,0,0,1-12.1-12.11m-1.17,0A13.28,13.28,0,1,0,185.89,0a13.27,13.27,0,0,0-13.27,13.27m-7.83,21.11h24.7V33.21H166V.63h-1.17Zm-21.42-11h5.8v2.34a8.17,8.17,0,1,1-8.55-8.19H141L134.46,7.15H148V6H132.34L139,16.56a9.34,9.34,0,1,0,11.38,9.13V23.35h1.85V22.18h-8.82ZM110.52,34.42a8.8,8.8,0,0,0,9-8.73c0-7.83-9.36-9.27-9.36-16.38A7.59,7.59,0,0,1,118,1.8V.63a8.78,8.78,0,0,0-9,8.68c0,7.79,9.36,9.27,9.36,16.38a7.61,7.61,0,0,1-7.83,7.52Zm-22.77-10V1.8h4.54a11.3,11.3,0,1,1,0,22.59Zm-1.17,10h1.17V25.56h4.54a12.8,12.8,0,0,0,1.85-.14l9,9h1.62l-9.22-9.23A12.48,12.48,0,0,0,92.29.63H86.58Zm-24-8.15a8.75,8.75,0,1,0,17.5,0V.63H78.88v25.6a7.58,7.58,0,1,1-15.16,0V.63H62.55ZM23.8,17.5A16.34,16.34,0,1,1,40.14,33.84,16.36,16.36,0,0,1,23.8,17.5m-1.17,0A17.51,17.51,0,1,0,40.14,0,17.5,17.5,0,0,0,22.63,17.5M0,34.38H1.17V17.5H16.33V34.38H17.5V.63H16.33v15.7H1.17V.63H0Z" fill="#000"/></g></svg>