<svg xmlns="http://www.w3.org/2000/svg" viewBox="0 0 263.9 48.5"><path d="M254 37.9c5.5 0 9.9-4.2 9.9-9.6 0-8.6-10.3-10.2-10.3-18 0-4.7 3.8-8.3 8.6-8.3V.7c-5.5 0-9.9 4.2-9.9 9.6 0 8.6 10.3 10.2 10.3 18 0 4.7-3.8 8.3-8.6 8.3v1.3zm-30.8-.1h1.3V4.5l21.6 34V.7h-1.3v33.4L223.2 0v37.8zm-25.9-18.5c0 .6.5 1.1 1.1 1.1s1.1-.5 1.1-1.1-.5-1.1-1.1-1.1-1.1.5-1.1 1.1m-16.9 0c0-9.9 8.1-18 18-18s18 8.1 18 18-8.1 18-18 18-18-8.1-18-18m-1.3 0c0 10.6 8.6 19.3 19.3 19.3 10.6 0 19.3-8.6 19.3-19.3C217.6 8.6 209 0 198.3 0c-10.6 0-19.2 8.6-19.2 19.3m-6.9 18.5h1.3V.7h-1.3v37.1zm-14.3 0h1.3V2h9V.7h-19.3V2h9v35.8zm-26.9-11l7.3-22.7 7.3 22.7H131zm-4.9 11h1.3l3.1-9.7H146l3.1 9.7h1.3L138.3 0l-12.2 37.8zm-10.4.7L127.9.7h-1.3l-10.8 33.7L104.9.7h-1.3l12.1 37.8zm-48.8-.7h34.3v-1.3h-33V19.3h11.5V18H68.2V2H81V.7H66.9v37.1zm19.2-17.4V2h5c5.1 0 9.2 4.1 9.2 9.3 0 5.1-4.1 9.2-9.2 9.2h-5v-.1zm-1.3 8.4h1.3v-7.1h5c.5 0 1 0 1.5-.1l7.2 7.2h1.8L94 21.3c4.4-1.3 7.5-5.4 7.5-10.1 0-6-4.9-10.5-10.5-10.5h-6.3v28.1h.1zm-34 9.1c5.5 0 9.9-4.2 9.9-9.6 0-8.6-10.3-10.2-10.3-18C50.4 5.6 54.2 2 59 2V.7c-5.5 0-9.9 4.2-9.9 9.6 0 8.6 10.3 10.2 10.3 18 0 4.7-3.8 8.3-8.6 8.3v1.3zm-24.9-.1h19.3v-1.3h-18V19.3h16.7V18H27.2V2h18V.7H25.9v37.1zm-24.6-11V2h5c6.9 0 12.4 5.5 12.4 12.4S13.2 26.8 6.3 26.8h-5zM0 37.8h1.3v-9.7h5c.7 0 1.3 0 2-.1 5.9 7.9 15.4 20.5 26.2 20.5 5 0 9.6-2 12.9-5.3l-.9-.9c-3.1 3.1-7.3 5-12 5C23.6 47.2 14 33.4 9.7 27.7c6-1.6 10.2-7 10.2-13.3C19.9 6.6 13.5.8 6.2.7H0v37.1z" fill="#010202"/></svg>