<svg id="fa3386f2-f701-41cd-a43e-92bfd65bcadd" data-name="Layer 1" xmlns="http://www.w3.org/2000/svg" xmlns:xlink="http://www.w3.org/1999/xlink" viewBox="0 0 487.89 68.6"><defs><clipPath id="ac805f65-1ecf-499a-b63b-8c2cbdeb0282"><rect width="487.89" height="68.6" fill="none"/></clipPath></defs><title>heading-press</title><g clip-path="url(#ac805f65-1ecf-499a-b63b-8c2cbdeb0282)"><path d="M473.89,53.55a13.69,13.69,0,0,0,14-13.58c0-12.18-14.56-14.42-14.56-25.48,0-6.58,5.39-11.69,12.18-11.69V1a13.67,13.67,0,0,0-14,13.51c0,12.11,14.56,14.42,14.56,25.48,0,6.58-5.39,11.69-12.18,11.69Zm-35.21-.07h27.23V51.66H440.5V27.23h23.59V25.41H440.5V2.8h25.41V1H438.68Zm-39.76-1.82V2.8h5.53a24.43,24.43,0,1,1,0,48.86Zm-1.82,1.82h7.35a26.25,26.25,0,1,0,0-52.5H397.1Zm-43.4,0H390V51.66H355.52V1H353.7ZM369.52,28.7l7.42-22.82,7.28,22.82Zm-5.74,12h1.89L369,30.52h15.82l3.29,10.22H390L376.94,0ZM314.86,27.3a12.25,12.25,0,1,1,12.25,12.18A12.31,12.31,0,0,1,314.86,27.3m-1.82,0a14.07,14.07,0,1,0,14.07-14.07A14,14,0,0,0,313,27.3m32,17.92a25.15,25.15,0,0,1-17.91,7.42A25.41,25.41,0,1,1,345,9.31L346.36,8a27.23,27.23,0,1,0-19.25,46.48,27.09,27.09,0,0,0,19.25-8Zm-51.3,0a25.18,25.18,0,0,1-17.92,7.42A25.41,25.41,0,1,1,293.72,9.31L295.05,8A27.23,27.23,0,1,0,275.8,54.46a27.09,27.09,0,0,0,19.25-8ZM218,37.94,228.34,5.88l10.29,32.06Zm-6.86,15.54H213l4.41-13.72h21.77l4.41,13.72h1.89L228.34,0ZM182.7,36.33h9V40a12.71,12.71,0,1,1-13.3-12.74H179l-10.15-16.1h21.07V9.31H165.55l10.29,16.45A14.53,14.53,0,1,0,193.55,40V36.33h2.87V34.51H182.7ZM131.6,53.55A13.69,13.69,0,0,0,145.6,40C145.6,27.79,131,25.55,131,14.49c0-6.58,5.39-11.69,12.18-11.69V1a13.67,13.67,0,0,0-14,13.51c0,12.11,14.56,14.42,14.56,25.48,0,6.58-5.39,11.69-12.18,11.69Zm-23.38,0a13.69,13.69,0,0,0,14-13.58c0-12.18-14.56-14.42-14.56-25.48,0-6.58,5.39-11.69,12.18-11.69V1a13.67,13.67,0,0,0-14,13.51c0,12.11,14.56,14.42,14.56,25.48,0,6.58-5.39,11.69-12.18,11.69ZM73,53.48h27.23V51.66H74.83V27.23H98.42V25.41H74.83V2.8h25.41V1H73ZM38.22,37.94V2.8h7.07a17.57,17.57,0,1,1,0,35.14ZM36.4,53.48h1.82V39.76h7.07a19.8,19.8,0,0,0,2.87-.21C56.49,50.68,70,68.6,85.19,68.6A25.54,25.54,0,0,0,103.39,61l-1.26-1.26a23.92,23.92,0,0,1-16.94,7c-15.4,0-29-19.53-35.07-27.65A19.39,19.39,0,0,0,45.29,1H36.4ZM1.82,37.94V2.8H8.89a17.57,17.57,0,0,1,0,35.14ZM0,53.48H1.82V39.76H8.89A19.39,19.39,0,0,0,8.89,1H0Z"/></g></svg>