<svg id="fba1679f-6c8e-448f-9b54-d74ce8e4473d" data-name="Layer 1" xmlns="http://www.w3.org/2000/svg" viewBox="0 0 149.04 44.1"><path d="M29.88,29.88a17.51,17.51,0,1,1,0-24.75L29,6A16.32,16.32,0,1,0,17.5,33.84,16.18,16.18,0,0,0,29,29.07ZM42.52,0l11,34.38H52.33L49.5,25.56h-14l-2.84,8.82H31.46Zm6.62,24.39L42.52,3.78,35.86,24.39Zm8-23.76h5.72A12.46,12.46,0,0,1,66,25.15c3.91,5.22,12.64,17.78,22.54,17.78a15.36,15.36,0,0,0,10.89-4.5l.81.81a16.43,16.43,0,0,1-11.7,4.86c-9.76,0-18.45-11.52-23.8-18.68a12.67,12.67,0,0,1-1.84.14H58.32v8.82H57.15Zm5.72,23.76a11.3,11.3,0,0,0,0-22.59H58.32V24.39ZM80.69.63H93.51V1.8H81.86V16.33H92.34V17.5H81.86V33.21H111v1.17H80.69ZM97,.63h14V1.8H98.14V12.28h12v1.17h-12V25H111v1.17H97Zm19.13,0h5.72A12.48,12.48,0,0,1,125,25.15l9.22,9.23h-1.62l-9-9a12.77,12.77,0,0,1-1.84.14h-4.55v8.82H116.1Zm5.72,23.76a11.3,11.3,0,0,0,0-22.59h-4.55V24.39ZM140,33.21a7.61,7.61,0,0,0,7.83-7.52c0-7.11-9.36-8.59-9.36-16.38a8.78,8.78,0,0,1,9-8.68V1.8a7.59,7.59,0,0,0-7.83,7.51c0,7.11,9.36,8.55,9.36,16.38a8.8,8.8,0,0,1-9,8.73Z"/></svg>