<svg id="fb92c3e7-cec7-463f-aeb0-01fed23ab57e" data-name="Layer 1" xmlns="http://www.w3.org/2000/svg" viewBox="0 0 303.42 28.88"><title>heading-gifts-experiences</title><path d="M296,28.4a7.27,7.27,0,0,0,7.43-7.2c0-6.46-7.72-7.65-7.72-13.51a6.26,6.26,0,0,1,6.45-6.2v-1a7.25,7.25,0,0,0-7.42,7.17c0,6.42,7.72,7.64,7.72,13.51A6.27,6.27,0,0,1,296,27.4Zm-18.67,0h14.44v-1H278.28V21.09H290.8v-1H278.28V1.49h13.48v-1H277.32ZM272.72,24a13.47,13.47,0,1,1-9.51-23,13.4,13.4,0,0,1,9.51,4l.7-.71a14.44,14.44,0,1,0-10.21,24.65,14.34,14.34,0,0,0,10.21-4.23Zm-45.37,4.38h1v-25l16.23,25.5V.52h-1v25L227.35,0Zm-18.34,0h14.44v-1H210V21.09h12.51v-1H210V1.49h13.47v-1H209Zm-6.53,0h1V.52h-1Zm-30.3,0h25.69v-1H173.15v-13h8.65v-1h-8.65v-12h9.61v-1H172.18Zm14.41-13V1.49h3.75a6.92,6.92,0,0,1,0,13.84Zm-1,6.28h1V16.3h3.75a5.19,5.19,0,0,0,1.11-.08l5.42,5.39h1.34L192.56,16A7.9,7.9,0,0,0,190.34.52h-4.72Zm-31.78-1.49V1.49h3.75a9.32,9.32,0,1,1,0,18.63Zm-1,8.24h1V21.09h3.75a10.29,10.29,0,0,0,0-20.57h-4.71Zm-19,0H135l6.65-12.88,6.65,12.88h1.07l-7.2-13.92L149.35.52h-1.07L141.63,13.4,135,.52h-1.07l7.16,13.92Zm-16.3,0h14.44v-1H118.57V21.09h12.52v-1H118.57V1.49h13.48v-1H117.61ZM99.94,19.27h4.79V21.2a6.74,6.74,0,1,1-7.06-6.76H98L92.59,5.9h11.17v-1H90.84l5.46,8.72a7.7,7.7,0,1,0,9.39,7.54V19.27h1.53v-1H99.94ZM72.84,28.4a7.26,7.26,0,0,0,7.42-7.2c0-6.46-7.72-7.65-7.72-13.51A6.27,6.27,0,0,1,79,1.49v-1a7.25,7.25,0,0,0-7.42,7.17c0,6.42,7.72,7.64,7.72,13.51a6.27,6.27,0,0,1-6.46,6.2Zm-11,0h1V1.49h6.75v-1H55.09v1h6.72Zm-22.16,0h1V14.44H53.12v-1H40.61v-12H54.09v-1H39.65Zm-6.54,0h1V.52h-1ZM14.48,14.92h13.4A13.5,13.5,0,1,1,24,4.94l.78-.63a14.44,14.44,0,1,0,4.15,10.13V14H14.48Z"/></svg>